<?xml version="1.0"?>
<svg xmlns="http://www.w3.org/2000/svg" viewBox="0 0 50 50">
    <path style="text-indent:0;text-align:start;line-height:normal;text-transform:none;block-progression:tb;-inkscape-font-specification:Sans" d="M 38 2 C 36.904002 2 35.856744 2.1768104 34.875 2.5 L 33.3125 3 L 34.46875 4.15625 L 40.09375 9.78125 L 38.875 12.875 L 35.78125 14.09375 L 30.15625 8.46875 L 29 7.3125 L 28.5 8.875 C 28.17681 9.8567437 28 10.904002 28 12 C 28 16.077351 30.488143 19.510104 34 21.0625 L 34 43 C 34 45.749516 36.250484 48 39 48 C 41.749516 48 44 45.749516 44 43 L 44 19.9375 C 46.410837 18.112053 48 15.251274 48 12 C 48 6.4886661 43.511334 2 38 2 z M 38 4 C 42.430666 4 46 7.5693339 46 12 C 46 14.78047 44.581256 17.221152 42.4375 18.65625 L 42 18.9375 L 42 19.46875 L 42 43 C 42 44.668484 40.668484 46 39 46 C 37.331516 46 36 44.668484 36 43 L 36 20.46875 L 36 19.78125 L 35.34375 19.53125 C 32.24004 18.432112 30 15.490313 30 12 C 30 11.737627 30.09965 11.505627 30.125 11.25 L 34.84375 15.96875 L 35.3125 16.4375 L 35.90625 16.1875 L 40 14.5625 L 40.40625 14.40625 L 40.5625 14 L 42.1875 9.90625 L 42.4375 9.3125 L 41.96875 8.84375 L 37.25 4.125 C 37.505627 4.0996497 37.737627 4 38 4 z M 22.5 14 C 21.288826 14 20.129799 14.452676 19.21875 15.25 L 12.53125 21.09375 L 2.28125 23.65625 C 0.95054149 23.98818 0 25.190615 0 26.5625 L 0 32 C 0 33.64497 1.3550302 35 3 35 L 4.09375 35 C 4.5620865 37.272748 6.5941183 39 9 39 C 11.405882 39 13.437913 37.272748 13.90625 35 L 32 35 L 32 33 L 13.90625 33 C 13.437913 30.727252 11.405882 29 9 29 C 6.5941183 29 4.5620865 30.727252 4.09375 33 L 3 33 C 2.4349698 33 2 32.56503 2 32 L 2 26.5625 C 2 26.098385 2.3007085 25.70582 2.75 25.59375 L 13.25 22.96875 A 1.0001 1.0001 0 0 0 13.65625 22.75 L 20.53125 16.75 C 21.078201 16.271324 21.773174 16 22.5 16 L 27 16 L 27 14 L 22.5 14 z M 9 31 C 10.668699 31 12 32.331301 12 34 C 12 35.668699 10.668699 37 9 37 C 7.3313011 37 6 35.668699 6 34 C 6 32.331301 7.3313011 31 9 31 z" overflow="visible" font-family="Sans"/>
</svg>
